<?xml version="1.0" encoding="utf-8"?>
<!-- Generator: Adobe Adobe Illustrator 24.2.0, SVG Export Plug-In . SVG Version: 6.00 Build 0)  -->
<svg version="1.1" id="Ebene_1" xmlns="http://www.w3.org/2000/svg" xmlns:xlink="http://www.w3.org/1999/xlink" x="0px" y="0px"
	 viewBox="0 0 100 100" style="enable-background:new 0 0 100 100;" xml:space="preserve">
<style type="text/css">
	.st0{fill:#FFFFFF;stroke:#000000;stroke-miterlimit:10;}
</style>
<path class="st0" d="M74.38,23.31c0-4.39-3.76-6.34-5.4-6.76c-3.47-0.88-10.58,0.2-14.15,0.16c-5.79-0.05-11.57-0.11-17.36-0.16
	c-2.06-0.02-4.17-0.03-6.12,0.65c-2.96,1.03-5.31,3.73-5.96,6.84"/>
<path class="st0" d="M29,75.8V27.41c0-3.51,2.85-6.36,6.36-6.36h29.27c3.51,0,6.36,2.85,6.36,6.36V75.8c0,3.51-2.85,6.36-6.36,6.36
	H35.36C31.85,82.16,29,79.31,29,75.8z"/>
<line class="st0" x1="39.56" y1="32.58" x2="39.56" y2="72.83"/>
<line class="st0" x1="50" y1="32.58" x2="50" y2="72.83"/>
<line class="st0" x1="59.28" y1="32.58" x2="59.28" y2="72.83"/>
<rect x="41.35" y="13.2" class="st0" width="17.93" height="3.34"/>
</svg>
